<svg width="200" height="200" viewBox="0 0 200 200" fill="none" xmlns="http://www.w3.org/2000/svg">
<g clip-path="url(#clip0)">
<path d="M2.0625 79.1875H17.7812L27.0312 94.6562L36.2812 79.1875H51.9062L34.0938 105.812V125H19.9062V105.812L2.0625 79.1875ZM56.5 79.1875H70.6562V113.719H92.75V125H56.5V79.1875ZM99.1562 79.1875H137.094V88.9688H113.344V96.25H135.375V105.594H113.344V114.625H137.781V125H99.1562V79.1875ZM145.281 79.1875H163.906L171.094 107.062L178.25 79.1875H196.812V125H185.25V90.0625L176.281 125H165.812L156.875 90.0625V125H145.281V79.1875Z" fill="white"/>
</g>
<defs>
<clipPath id="clip0">
<rect width="200" height="200" fill="white"/>
</clipPath>
</defs>
</svg>
